#!OML:ASF E:\Style4\Style4.ASF
:FULLY-SPECIFIED
:DEGREES
878
root -0.0620702 17.705 -2.15368 -0.734973 -1.58467 1.00418
lowerback 7.54622 1.84032 0.332965
upperback 2.65247 2.47717 0.434187
thorax -1.49407 1.23489 0.0450241
lowerneck -3.10637 -4.86188 -5.51242
upperneck 6.83508 -6.47634 4.02761
head 3.10723 -3.23047 2.03542
rclavicle -6.5102e-015 -3.97569e-016
rhumerus 0.822526 26.1879 -79.1888
rradius 85.3802
rwrist 22.2558
rhand -33.8881 19.4442
rfingers 7.12502
rthumb -7.07156 -10.4176
lclavicle -6.5102e-015 -3.97569e-016
lhumerus -4.35081 -49.2304 80.113
lradius 64.7335
lwrist -14.6954
lhand -19.0972 28.8974
lfingers 7.12502
lthumb 7.21134 58.7546
rfemur -13.6393 1.07812 17.5202
rtibia 33.5016
rfoot -17.6886 -14.3251
rtoes -14.5862
lfemur -11.8529 -2.33748 -19.8583
ltibia 32.542
lfoot -19.8017 8.85357
ltoes -14.8207
879
root -0.0634681 17.7091 -2.14094 -0.726078 -1.5221 1.23757
lowerback 7.38448 1.90083 0.10119
upperback 2.6754 2.53897 0.356049
thorax -1.3874 1.26567 0.0953806
lowerneck -3.1376 -4.93621 -5.5468
upperneck 6.85765 -6.57576 4.06497
head 3.12978 -3.27921 2.04878
rclavicle 1.56543e-014 7.95139e-016
rhumerus 0.27421 25.8895 -79.5218
rradius 84.2918
rwrist 22.3196
rhand -34.362 19.4376
rfingers 7.12502
rthumb -7.52903 -10.4084
lclavicle 1.56543e-014 7.95139e-016
lhumerus -3.47777 -49.1066 79.41
lradius 65.8714
lwrist -14.4839
lhand -19.4507 28.9173
lfingers 7.12502
lthumb 6.87012 58.7858
rfemur -13.612 0.942018 17.2451
rtibia 33.5578
rfoot -17.8254 -14.2613
rtoes -14.5384
lfemur -11.7408 -2.37226 -20.128
ltibia 32.4331
lfoot -19.861 8.84133
ltoes -14.645
880
root -0.0655101 17.7123 -2.13295 -0.767728 -1.4303 1.37149
lowerback 7.28623 1.95561 -0.0189803
upperback 2.72864 2.60219 0.299993
thorax -1.281 1.29722 0.104554
lowerneck -3.18989 -5.01637 -5.60155
upperneck 6.87448 -6.68265 4.12983
head 3.15722 -3.33104 2.0742
rclavicle 1.56543e-014 6.36111e-015
rhumerus -0.2584 25.6662 -79.8557
rradius 82.9804
rwrist 22.7108
rhand -34.2078 19.4061
rfingers 7.12502
rthumb -7.38019 -10.4452
lclavicle 1.56543e-014 6.36111e-015
lhumerus -2.54362 -49.0112 78.67
lradius 67.091
lwrist -14.1874
lhand -20.0289 29.173
lfingers 7.12502
lthumb 6.3119 59.059
rfemur -13.5113 0.787372 17.0855
rtibia 33.6081
rfoot -17.9485 -14.0524
rtoes -13.8281
lfemur -11.6142 -2.4657 -20.2816
ltibia 32.325
lfoot -19.9079 8.76033
ltoes -13.9069
881
root -0.071098 17.7129 -2.13345 -0.82112 -1.28811 1.27162
lowerback 7.33259 1.99081 0.0575141
upperback 2.73761 2.65442 0.305225
thorax -1.29435 1.32357 0.061318
lowerneck -3.22952 -5.08431 -5.62288
upperneck 6.90476 -6.7758 4.18993
head 3.18442 -3.37548 2.09282
rclavicle 1.32689e-014 1.59028e-015
rhumerus -0.896313 25.4876 -80.2345
rradius 81.5336
rwrist 23.2153
rhand -34.5599 18.8821
rfingers 7.12502
rthumb -7.71999 -10.957
lclavicle 1.32689e-014 1.59028e-015
lhumerus -1.61288 -49.063 77.895
lradius 68.4621
lwrist -13.7096
lhand -20.8892 29.5813
lfingers 7.12502
lthumb 5.48128 59.4904
rfemur -13.3729 0.747723 17.2247
rtibia 33.625
rfoot -18.0069 -13.8933
rtoes -12.7002
lfemur -11.5417 -2.58294 -20.1537
ltibia 32.2483
lfoot -19.8333 8.69369
ltoes -13.5575
882
root -0.0769655 17.7129 -2.13102 -0.857539 -1.1551 1.1727
lowerback 7.35186 2.02016 0.126882
upperback 2.74395 2.69846 0.312519
thorax -1.2957 1.34582 0.0258039
lowerneck -3.28897 -5.14685 -5.70846
upperneck 6.91539 -6.86194 4.32276
head 3.21521 -3.41554 2.14745
rclavicle -2.80286e-014 1.03368e-014
rhumerus -1.48942 25.2817 -80.6204
rradius 80.0113
rwrist 23.2373
rhand -34.4929 18.9568
rfingers 7.12502
rthumb -7.65533 -10.8846
lclavicle -2.80286e-014 1.03368e-014
lhumerus -0.613127 -49.0364 77.0407
lradius 69.9084
lwrist -13.3048
lhand -21.108 29.1589
lfingers 7.12502
lthumb 5.27009 59.0734
rfemur -13.2772 0.752782 17.3649
rtibia 33.5957
rfoot -18.0292 -14.0049
rtoes -12.495
lfemur -11.5055 -2.67241 -20.023
ltibia 32.2299
lfoot -19.7362 8.63524
ltoes -13.5431
883
root -0.0828323 17.7124 -2.12865 -0.854932 -1.02559 1.17276
lowerback 7.32064 2.03255 0.0781429
upperback 2.74313 2.7115 0.306185
thorax -1.28122 1.35224 0.0466374
lowerneck -3.32156 -5.18169 -5.74376
upperneck 6.89439 -6.9074 4.36325
head 3.22063 -3.43729 2.16461
rclavicle 1.67476e-014 -1.07344e-014
rhumerus -1.96512 25.0662 -80.9805
rradius 78.2487
rwrist 22.9289
rhand -33.8796 19.7383
rfingers 7.12502
rthumb -7.06331 -10.1238
lclavicle 1.67476e-014 -1.07344e-014
lhumerus 0.440187 -48.8798 76.1446
lradius 71.3679
lwrist -13.0038
lhand -21.2161 28.8704
lfingers 7.12502
lthumb 5.1657 58.7874
rfemur -13.2802 0.724681 17.3852
rtibia 33.5377
rfoot -17.9713 -14.3329
rtoes -13.697
lfemur -11.5286 -2.75251 -20.003
ltibia 32.2529
lfoot -19.6783 8.64893
ltoes -14.0576
884
root -0.0881337 17.7114 -2.12831 -0.835846 -0.901888 1.23529
lowerback 7.30675 2.04717 -0.0217211
upperback 2.72652 2.7236 0.274532
thorax -1.29375 1.35804 0.0690707
lowerneck -3.40791 -5.22037 -5.76331
upperneck 6.94053 -6.95583 4.37517
head 3.25737 -3.46048 2.16765
rclavicle 1.39149e-015 1.82882e-014
rhumerus -2.43217 24.7586 -81.3394
rradius 76.2311
rwrist 22.5311
rhand -34.1071 20.4495
rfingers 7.12502
rthumb -7.28298 -9.40516
lclavicle 1.39149e-015 1.82882e-014
lhumerus 1.45272 -48.6394 75.3325
lradius 72.7413
lwrist -13.0613
lhand -22.2245 29.227
lfingers 7.12502
lthumb 4.192 59.1655
rfemur -13.2803 0.677203 17.3347
rtibia 33.4765
rfoot -17.9176 -14.5499
rtoes -14.4181
lfemur -11.5765 -2.79608 -20.0503
ltibia 32.2679
lfoot -19.6424 8.61282
ltoes -14.0414
